<?xml version="1.0" encoding="utf-8"?>
<!-- Generator: Adobe Illustrator 24.2.1, SVG Export Plug-In . SVG Version: 6.00 Build 0)  -->
<svg version="1.1" id="Layer_1" xmlns="http://www.w3.org/2000/svg" xmlns:xlink="http://www.w3.org/1999/xlink" x="0px" y="0px"
	 viewBox="0 0 500 500" style="enable-background:new 0 0 500 500;" xml:space="preserve">
<style type="text/css">
	.st0{fill:#FF00CC;}
	.st1{fill:#333333;}
</style>
<g>
	<g>
		<path class="st0" d="M431.7,494h-57.3c-11.8,0-20.4-4.6-26-13.7l-124-170.7c-3.8-5.3-7.8-9.2-12.2-11.5
			c-4.3-2.3-11.1-3.5-20.2-3.5h-49V494H78.7V16.3h135c30.2,0,56.3,3.1,78.3,9.2c22,6.1,40.2,14.9,54.5,26.5
			c14.3,11.6,24.9,25.5,31.8,41.8c6.9,16.3,10.3,34.6,10.3,54.8c0,16.9-2.7,32.7-8,47.3c-5.3,14.7-13.1,27.8-23.2,39.5
			c-10.1,11.7-22.4,21.6-37,29.8c-14.6,8.2-31.1,14.4-49.5,18.7c8.2,4.7,15.3,11.4,21.3,20.3L431.7,494z M211,247.7
			c18.7,0,35.2-2.3,49.5-6.8c14.3-4.6,26.3-11,36-19.3c9.7-8.3,16.9-18.3,21.8-29.8c4.9-11.6,7.3-24.3,7.3-38.3
			c0-28.4-9.3-49.9-28-64.3c-18.7-14.4-46.7-21.7-84-21.7H143v180.3H211z"/>
	</g>
	<g>
		<path class="st1" d="M421.3,483.7H364c-11.8,0-20.4-4.6-26-13.7L214,299.3c-3.8-5.3-7.8-9.2-12.2-11.5c-4.3-2.3-11.1-3.5-20.2-3.5
			h-49v199.3H68.3V6h135c30.2,0,56.3,3.1,78.3,9.2c22,6.1,40.2,14.9,54.5,26.5c14.3,11.6,24.9,25.5,31.8,41.8
			c6.9,16.3,10.3,34.6,10.3,54.8c0,16.9-2.7,32.7-8,47.3c-5.3,14.7-13.1,27.8-23.2,39.5c-10.1,11.7-22.4,21.6-37,29.8
			c-14.6,8.2-31.1,14.4-49.5,18.7c8.2,4.7,15.3,11.4,21.3,20.3L421.3,483.7z M200.7,237.3c18.7,0,35.2-2.3,49.5-6.8
			c14.3-4.6,26.3-11,36-19.3c9.7-8.3,16.9-18.3,21.8-29.8c4.9-11.6,7.3-24.3,7.3-38.3c0-28.4-9.3-49.9-28-64.3
			c-18.7-14.4-46.7-21.7-84-21.7h-70.7v180.3H200.7z"/>
	</g>
</g>
</svg>
